<svg width="290" height="290" viewBox="0 0 290 290" fill="none" xmlns="http://www.w3.org/2000/svg">
<path opacity="0.7" d="M143.777 36.2043L146.519 50.7949L124.248 39.3309L108.637 36.4082C108.637 36.4082 83.5117 79.523 75.0382 98.5996C57.5476 137.954 64.1179 162.468 64.5937 177.783C64.9336 188.228 61.4445 194.549 59.2468 199.148C57.0718 203.77 44.1351 230.98 44.1351 230.98C44.1351 230.98 31.8554 224.206 19.3945 224.704C8.72341 225.112 7.65857 231.796 7.88513 233.495C8.13435 235.194 23.0422 254.792 46.3554 265.486C69.6687 276.179 81.0648 271.218 81.0648 271.218C81.0648 271.218 87.9297 266.256 79.9093 256.287C71.889 246.318 60.9687 240.179 60.9687 240.179L80.6344 197.2L93.5031 183.606L108.071 172.912L122.639 156.871L136.006 136.232L152.273 105.147L155.921 98.3504C155.921 98.3504 164.666 129.186 175.587 146.676C186.507 164.167 192.579 165.617 198.9 178.486C205.221 191.354 213.785 228.465 213.785 228.465C213.785 228.465 204.36 231.524 195.547 236.644C182.791 244.053 186.711 250.011 187.096 253.002C187.866 259.029 206.173 263.741 236.056 253.296C265.94 242.852 268.545 234.152 267.798 229.779C267.073 225.407 258.237 223.798 250.556 223.3C243.578 222.846 232.635 224.704 232.635 224.704L224.864 199.873L220.491 177.036L222.191 160.27L226.563 142.779L228.262 118.741L224.366 84.734L213.445 35.6832L208.665 18.7363C208.665 18.7363 182.157 20.8887 171.463 23.5395C149.849 28.8863 143.777 36.2043 143.777 36.2043Z" fill="#E0E0E0"/>
<path opacity="0.5" d="M143.777 36.2045L146.519 50.7951L170.081 65.4764L144.684 61.4436L126.604 51.5881L108.637 36.4084C108.637 36.4084 83.5117 79.5232 75.0382 98.5998C57.5476 137.954 64.1179 162.468 64.5937 177.783C64.9336 188.228 61.4445 194.549 59.2468 199.148C57.0718 203.77 44.1351 230.98 44.1351 230.98C44.1351 230.98 31.8554 224.206 19.3945 224.704C8.72341 225.112 7.65857 231.796 7.88513 233.495C8.13435 235.194 23.0422 254.792 46.3554 265.486C69.6687 276.179 81.314 270.062 81.314 270.062C81.314 270.062 87.907 266.279 79.8867 256.31C71.8664 246.341 60.9461 240.201 60.9461 240.201L80.6117 197.222L93.4804 183.629L108.048 172.935L122.616 156.894L135.984 136.254L152.251 105.17L155.898 98.3732C155.898 98.3732 164.644 129.208 175.564 146.699C186.484 164.19 192.556 165.64 198.877 178.508C205.198 191.377 213.762 228.488 213.762 228.488C213.762 228.488 204.337 231.547 195.524 236.667C182.769 244.076 186.688 250.034 187.073 253.025C187.844 259.051 206.15 263.764 236.034 253.319C265.917 242.875 268.523 234.175 267.775 229.802C267.05 225.429 258.214 223.821 250.534 223.322C243.555 222.869 232.612 224.727 232.612 224.727L224.841 199.896L220.469 177.058L222.168 160.293L226.541 142.802L228.24 118.764L224.343 84.7568L213.423 35.7061L209.027 21.5459C209.027 21.5459 199.013 30.9709 179.597 34.6865C157.779 38.9006 143.777 36.2045 143.777 36.2045Z" fill="white"/>
<path d="M94.6348 82.6497C94.6348 82.6497 95.5184 81.3583 98.5996 80.8825C100.299 80.6106 116.453 78.3223 125.81 75.2864C134.102 72.613 149.372 64.1169 153.745 65.3177C158.118 66.5184 157.642 69.4411 156.169 74.3122C154.696 79.1833 147.877 92.2106 147.877 92.2106C147.877 92.2106 103.131 116.702 104.105 115.977C105.079 115.252 94.6348 82.6497 94.6348 82.6497Z" fill="#FEF3C0"/>
<path d="M80.3841 173.887C92.7771 179.71 108.795 163.692 120.939 143.528C131.361 126.218 147.9 92.0299 147.9 92.0299C147.9 92.0299 127.26 99.5518 116.815 96.4025C106.371 93.2533 94.7029 82.5596 94.7029 82.5596C94.7029 82.5596 82.899 103.879 76.963 122.389C70.9138 141.353 68.4896 168.291 80.3841 173.887Z" fill="url(#paint0_radial_51_67)"/>
<path d="M101.885 112.511C99.0757 113.802 99.9819 117.654 100.322 119.036C100.798 121.097 102.383 124.586 106.235 122.91C109.611 121.437 108.297 117.11 107.572 115.411C106.915 113.938 104.785 111.197 101.885 112.511ZM112.148 108.523C112.035 111.061 113.961 113.236 117.223 113.122C120.486 113.009 122.185 110.698 122.298 108.161C122.412 105.623 119.58 103.675 116.748 103.924C113.961 104.173 112.262 105.623 112.148 108.523ZM92.3241 141.76C90.1491 139.449 86.1616 140.559 83.7374 142.961C82.1061 144.592 80.4749 148.511 82.6499 150.822C84.8249 153.111 89.0616 151.661 91.2366 149.622C93.4116 147.56 94.0233 143.572 92.3241 141.76ZM99.3475 140.786C100.639 141.918 102.859 141.511 103.947 140.174C105.034 138.837 105.034 136.3 103.471 135.348C101.908 134.374 99.846 135.167 99.0077 136.549C98.0108 138.135 98.26 139.811 99.3475 140.786ZM85.4366 159.885C82.31 160.429 81.5624 163.872 81.9249 165.798C82.2874 167.724 83.9866 169.536 86.3882 169.061C88.8124 168.585 90.4889 166.523 90.2624 163.623C90.0358 160.723 87.4983 159.522 85.4366 159.885Z" fill="#FFFEFF"/>
<path d="M155.785 54.5565C155.785 54.5565 153.656 51.1807 156.669 50.0479C159.682 48.9151 171.939 52.8119 181.704 55.0549C191.469 57.2979 210.115 62.1916 210.115 62.1916L209.48 66.7002C209.48 66.7002 174.182 73.5877 173.933 73.2026C173.684 72.8174 169.923 68.4447 169.673 67.6971C169.424 66.9494 161.54 57.0713 161.155 57.0713C160.792 57.0713 155.785 54.5565 155.785 54.5565Z" fill="#FEF3C0"/>
<path d="M170.805 65.4539C170.805 65.4539 183.062 65.4539 191.082 65.2047C199.102 64.9555 210.113 62.1914 210.113 62.1914C210.113 62.1914 215.823 89.1524 218.02 108.931C219.923 126.037 218.791 158.662 208.641 161.358C195.341 164.892 182.79 140.31 177.398 128.212C169.513 110.563 162.195 84.2133 162.195 84.2133L170.805 65.4539Z" fill="url(#paint1_radial_51_67)"/>
<path d="M181.341 84.032C182.927 85.6179 185.623 84.9609 187.639 83.1031C189.656 81.2679 189.474 78.0734 187.798 76.9859C186.121 75.8984 183.697 76.2383 182.179 77.9148C180.593 79.6593 179.664 82.3328 181.341 84.032ZM200.032 90.3078C196.43 89.7187 194.323 91.6445 193.575 96.2664C192.85 100.707 197.087 101.477 198.786 101.477C201.142 101.477 202.887 99.0531 203.227 95.6093C203.567 92.1656 202.456 90.7156 200.032 90.3078ZM194.663 110.109C194.459 113.055 198.016 114.641 200.961 114.55C203.906 114.459 205.334 112.964 205.334 111.038C205.334 109.112 203.068 107.096 199.806 106.937C196.543 106.779 194.844 107.594 194.663 110.109ZM196.339 124.451C192.896 122.276 187.957 125.72 188.795 130.16C189.633 134.601 193.077 135.62 196.09 134.102C198.877 132.698 199.828 126.648 196.339 124.451ZM205.742 140.31C203.204 139.313 200.508 140.559 199.375 142.984C198.628 144.57 198.628 149.101 202.139 149.69C205.651 150.279 207.509 148.104 208.007 145.906C208.506 143.709 208.098 141.216 205.742 140.31Z" fill="#FEFFFF"/>
<path d="M237.687 63.6185C236.863 63.6213 236.054 63.3992 235.347 62.9762C234.64 62.5532 234.062 61.9453 233.675 61.218C233.288 60.4907 233.107 59.6716 233.151 58.849C233.195 58.0263 233.463 57.2314 233.926 56.5497L250.397 32.1263C251.801 30.0419 254.611 29.4981 256.695 30.9028C258.78 32.3075 259.323 35.1169 257.919 37.2013L241.448 61.6247C240.564 62.9161 239.137 63.6185 237.687 63.6185ZM243.532 77.4388C242.441 77.4388 241.387 77.0453 240.563 76.3307C239.739 75.616 239.201 74.6281 239.046 73.5483C238.892 72.4685 239.132 71.3694 239.723 70.4526C240.314 69.5358 241.216 68.8629 242.263 68.5575L276.791 58.4755C277.363 58.3089 277.961 58.2564 278.553 58.3211C279.144 58.3858 279.717 58.5663 280.239 58.8524C280.761 59.1385 281.221 59.5246 281.593 59.9886C281.966 60.4526 282.243 60.9855 282.41 61.5567C282.577 62.128 282.629 62.7265 282.564 63.318C282.5 63.9095 282.319 64.4825 282.033 65.0043C281.747 65.526 281.361 65.9863 280.897 66.3588C280.433 66.7314 279.9 67.0089 279.329 67.1755L244.801 77.2575C244.393 77.3708 243.962 77.4388 243.532 77.4388ZM274.073 103.72C273.506 103.72 272.94 103.607 272.373 103.38L245.548 92.4825C244.452 92.0164 243.583 91.1377 243.129 90.0363C242.674 88.9349 242.672 87.699 243.121 86.5955C243.57 85.492 244.435 84.6093 245.529 84.1382C246.623 83.667 247.859 83.645 248.969 84.077L275.794 94.9747C276.773 95.3701 277.582 96.094 278.085 97.0218C278.587 97.9497 278.75 99.0235 278.546 100.059C278.343 101.094 277.784 102.026 276.968 102.694C276.151 103.362 275.128 103.725 274.073 103.72Z" fill="#FF2A23"/>
<path d="M231.682 231.615C231.184 229.893 219.493 189.316 218.202 182.27C216.956 175.518 219.04 166.637 221.261 157.257C222.393 152.409 223.571 147.402 224.364 142.463C226.471 129.141 225.814 103.132 220.513 79.184C215.529 56.709 207.44 22.7473 207.35 22.4074L211.881 20.7988C211.971 21.1387 219.946 55.6441 224.954 78.1871C229.757 99.8012 231.411 127.125 228.873 143.143C228.057 148.263 226.857 153.338 225.701 158.277C223.594 167.204 221.623 175.609 222.688 181.432C223.934 188.229 235.942 229.916 236.078 230.324L231.682 231.615Z" fill="#AFAFAF"/>
<path d="M145.793 38.4478C144.592 38.4478 143.889 37.4056 143.708 36.1822C143.232 33.1463 146.178 27.301 173.66 21.2517C193.824 16.8111 206.33 16.29 210.25 18.8955C211.405 19.6658 211.813 20.4814 211.904 20.9572C212.153 22.3166 210.861 23.3135 209.502 23.5627C208.528 23.7439 207.576 23.3135 207.032 22.5658C206.081 22.158 200.213 20.5041 174.725 26.1228C152.703 30.9713 148.239 35.5478 148.239 35.5705C148.443 36.9299 147.514 38.1986 146.155 38.4252C146.064 38.4478 145.929 38.4478 145.793 38.4478Z" fill="#C9C9C9"/>
<path d="M156.918 39.8752C149.532 39.8752 145.952 38.8103 145.703 38.7197C145.088 38.5088 144.579 38.0658 144.286 37.4853C143.992 36.9048 143.937 36.2326 144.132 35.6121C144.327 34.9916 144.757 34.4717 145.33 34.1635C145.903 33.8552 146.573 33.7829 147.199 33.9619C147.289 33.9845 157.009 36.7713 178.374 32.4892C201.755 27.7767 207.509 20.3681 207.577 20.3002C208.393 19.2127 209.934 18.9634 211.044 19.7564C212.154 20.5494 212.426 22.0673 211.633 23.1775C210.999 24.0837 204.677 32.2627 179.348 37.3603C169.719 39.3088 162.31 39.8752 156.918 39.8752Z" fill="white"/>
<path d="M59.609 245.798L53.7637 243.849C53.9223 243.487 72.0699 207.395 78.3004 195.682C81.7215 189.248 88.7676 184.92 95.8816 179.891C102.565 175.155 110.155 169.763 115.955 162.264C127.079 147.9 139.268 127.328 147.039 109.883C153.021 96.4477 168.676 65.3406 168.835 65.0234L172.596 67.6062C172.437 67.9234 157.099 98.3734 151.186 111.718C143.279 129.48 130.863 150.415 119.535 165.051C113.327 173.071 105.443 178.667 98.4871 183.606C91.5316 188.545 85.5277 192.805 82.6051 198.287C76.4426 209.887 59.7902 245.435 59.609 245.798Z" fill="#AFAFAF"/>
<path d="M170.33 69.1917C169.152 69.1917 168.178 68.3761 167.906 67.3113C167.521 66.6542 164.1 61.8511 140.787 50.0925C118.402 38.8097 112.602 39.648 111.923 39.8292C110.903 40.4183 109.612 40.2371 108.796 39.3081C107.89 38.266 107.98 36.7027 109.023 35.7964C110.994 34.0746 118.04 33.0324 143.03 45.6519C156.623 52.4941 172.8 61.7152 172.8 66.7222C172.823 68.0816 171.712 69.1917 170.33 69.1917ZM112.33 39.5121C112.33 39.5347 112.308 39.5347 112.33 39.5121Z" fill="#C9C9C9"/>
<path d="M168.405 69.5092C164.055 69.5092 152.296 68.5123 135.462 59.4725C116.612 49.3451 108.932 39.9881 108.615 39.6029C107.754 38.5381 107.912 36.9521 108.977 36.0912C110.042 35.2303 111.605 35.3889 112.489 36.4537C112.557 36.5443 119.965 45.4709 137.819 55.0545C157.394 65.567 169.56 64.4795 169.696 64.4568C171.078 64.2982 172.279 65.2951 172.437 66.6772C172.596 68.0365 171.599 69.26 170.24 69.4186C170.126 69.4412 169.492 69.5092 168.405 69.5092Z" fill="white"/>
<path d="M214.805 231.388C213.332 232.136 214.125 237.143 215.983 238.389C218.271 239.93 221.126 240.315 226.858 238.774C232.975 237.143 236.147 235.013 236.691 233.654C237.234 232.295 235.105 227.106 235.105 227.106C235.105 227.106 230.868 229.848 226.11 231.207C221.352 232.589 216.436 230.573 214.805 231.388Z" fill="#B0B0B0"/>
<path d="M212.357 178.848C209.049 179.936 209.139 184.104 211.314 192.397C213.489 200.689 220.286 226.336 220.83 228.103C221.374 229.87 222.869 232.861 228.307 231.093C233.744 229.326 230.572 227.31 229.213 222.416C228.193 218.768 218.746 184.036 218.247 182.269C217.432 179.528 214.826 178.032 212.357 178.848ZM195.546 242.286C190.946 241.606 190.516 246.907 192.691 249.898C194.141 251.869 196.475 252.979 199.624 253.297C203.974 253.727 207.916 252.64 207.916 249.49C207.916 246.907 203.974 247.859 201.119 246.636C199.375 245.888 198.242 242.693 195.546 242.286Z" fill="white"/>
<path d="M229.758 252.413C242.853 249.218 251.122 245.797 256.401 242.127C263.153 237.414 264.875 232.634 264.807 231.093C264.671 228.375 263.402 226.449 263.583 226.064C263.991 225.248 268.794 228.51 269.021 231.501C269.202 233.812 270.018 239.476 259.392 246.25C253.796 249.83 245.594 254.044 231.276 257.578C217.206 261.045 205.878 261.77 197.993 260.32C189.611 258.779 185.125 254.86 184.853 250.442C184.604 246.364 187.186 243.577 187.572 243.668C188.115 243.803 186.597 246.658 188.115 249.513C189.316 251.733 192.307 253.885 198.175 255.041C204.315 256.264 213.649 256.355 229.758 252.413Z" fill="#B0B0B0"/>
<path d="M107.754 47.6918C104.967 52.5629 95.2247 69.3059 94.1825 71.4582C91.4637 77.1223 100.413 80.0676 103.766 75.4457C107.754 69.9402 115.094 57.7285 115.343 55.191C115.683 51.5434 109.158 45.2676 107.754 47.6918Z" fill="white"/>
<path d="M43.4313 234.787C41.7094 235.15 39.9196 238.14 40.0782 239.409C40.3954 241.947 44.8133 244.915 48.2571 246.75C53.1508 249.355 57.093 249.967 59.0868 246.931C61.0805 243.895 57.6594 240.497 57.6594 240.497C57.6594 240.497 52.9469 242.196 50.2282 240.361C47.5321 238.525 45.6743 234.311 43.4313 234.787Z" fill="#AFAFAF"/>
<path d="M16.7886 232.09C15.4066 233.2 13.7527 236.055 18.3746 240.632C23.0644 245.276 26.0551 246.432 28.2527 244.121C30.4504 241.81 27.8902 238.932 24.6051 235.511C22.0902 232.906 19.6207 229.87 16.7886 232.09ZM70.1894 189.27C68.8301 191.377 48.8926 232.815 48.1902 234.243C47.216 236.168 47.5785 238.932 50.4785 240.405C53.6957 242.059 55.916 241.13 57.1168 239.318C57.9324 238.094 75.1512 201.935 76.7597 198.672C78.9347 194.209 81.8347 189.497 77.4394 186.868C73.8144 184.671 71.2769 187.571 70.1894 189.27Z" fill="white"/>
<path d="M41.1656 259.573C53.1281 265.803 61.6015 268.681 67.9679 269.406C76.1695 270.312 79.3413 269.542 81.1312 267.978C83.1702 266.189 83.1249 263.56 83.5327 263.402C84.371 263.062 85.821 268.681 84.0312 271.06C82.6491 272.917 79.9304 276.384 67.4695 274.458C60.8992 273.461 51.9499 271.218 38.8546 264.444C25.9859 257.783 16.9913 250.85 12.0296 244.575C6.75071 237.891 5.95775 231.978 8.65384 228.489C11.146 225.249 13.2984 225.679 13.5476 226.019C13.8648 226.472 12.4601 226.812 11.7351 229.939C11.1687 232.408 12.007 235.988 15.6546 240.723C19.4835 245.662 26.4617 251.892 41.1656 259.573Z" fill="#B0B0B0"/>
<defs>
<radialGradient id="paint0_radial_51_67" cx="0" cy="0" r="1" gradientUnits="userSpaceOnUse" gradientTransform="translate(109.921 128.837) scale(42.3287 42.3287)">
<stop offset="0.404" stop-color="#FFD61B"/>
<stop offset="0.531" stop-color="#FFD71F"/>
<stop offset="0.66" stop-color="#FFD92B"/>
<stop offset="0.79" stop-color="#FFDC40"/>
<stop offset="0.921" stop-color="#FFE05C"/>
<stop offset="0.96" stop-color="#FFE266"/>
</radialGradient>
<radialGradient id="paint1_radial_51_67" cx="0" cy="0" r="1" gradientUnits="userSpaceOnUse" gradientTransform="translate(190.461 111.951) scale(40.4686 40.4686)">
<stop offset="0.404" stop-color="#FFD61B"/>
<stop offset="0.531" stop-color="#FFD71F"/>
<stop offset="0.66" stop-color="#FFD92B"/>
<stop offset="0.79" stop-color="#FFDC40"/>
<stop offset="0.921" stop-color="#FFE05C"/>
<stop offset="0.96" stop-color="#FFE266"/>
</radialGradient>
</defs>
</svg>
